<svg width="142" height="160" viewBox="0 0 142 160" fill="none" xmlns="http://www.w3.org/2000/svg">
<g id="Union Layer 6" clip-path="url(#clip0_2512_3117)">
<g id="Star">
<path id="Vector" fill-rule="evenodd" clip-rule="evenodd" d="M84.9818 61.3247C86.7654 63.9476 87.7621 67.0427 87.8671 70.1902L123.697 81.8361C122.91 85.6657 121.703 89.4427 120.077 93.0099L84.2474 81.364C82.3064 83.882 79.6834 85.7706 76.6933 86.8722V124.538C72.8113 124.957 68.8244 124.957 64.9425 124.538V86.8722C61.9523 85.7706 59.3818 83.882 57.3884 81.364L21.5064 93.0099C19.8802 89.4427 18.6736 85.6657 17.8867 81.8361L53.7162 70.1902C53.8211 66.9902 54.8179 63.9476 56.6015 61.3247L34.5162 30.846C37.4015 28.223 40.6015 25.8624 44.0113 23.9214L66.149 54.4001C69.1916 53.5607 72.4441 53.5607 75.4867 54.4001L97.6244 23.9214C101.034 25.8624 104.234 28.1706 107.12 30.846L84.9818 61.3247ZM64.0507 80.8919C66.0441 82.2034 68.4048 82.9378 70.7654 82.9378H70.8179C74.0179 82.9378 77.113 81.6263 79.3687 79.3706C81.6244 77.1148 82.8834 74.0198 82.9359 70.8198C82.9359 68.4066 82.2015 66.0984 80.89 64.105C79.5785 62.1116 77.69 60.5378 75.4343 59.646C73.231 58.7542 70.7654 58.4919 68.4572 58.964C66.0966 59.4361 63.9457 60.5902 62.267 62.2689C60.5884 63.9476 59.4343 66.0984 58.9621 68.4591C58.49 70.8198 58.7523 73.2329 59.6441 75.4361C60.4834 77.6919 62.0572 79.5804 64.0507 80.8919ZM75.172 72.2361L77.8474 80.5247L70.8179 75.3837L63.7884 80.5247L66.4638 72.2361L59.4343 67.0952H68.1425L70.8179 58.8066L73.4933 67.0952H82.2015L75.172 72.2361Z" fill="#0082FF"/>
</g>
<g id="Pie">
<path id="Vector_2" fill-rule="evenodd" clip-rule="evenodd" d="M70.8172 46.2164L90.3844 20.4591C77.7943 15.5804 63.8402 15.5804 51.25 20.4591L70.8172 46.2164Z" fill="#9A99FF"/>
<path id="Vector_3" fill-rule="evenodd" clip-rule="evenodd" d="M47.4212 63.2132L16.8901 73.8624C16.8376 72.8657 16.7852 71.8689 16.7852 70.8722C16.7852 58.387 21.0868 46.3214 28.9556 36.6689L47.4212 63.2132Z" fill="#9A99FF"/>
<path id="Vector_4" fill-rule="evenodd" clip-rule="evenodd" d="M25.3867 100.092C32.6785 111.423 44.0097 119.659 57.072 123.121C56.9146 115.515 56.5474 98.2034 56.39 90.8066L25.3867 100.092Z" fill="#9A99FF"/>
<path id="Vector_5" fill-rule="evenodd" clip-rule="evenodd" d="M116.248 100.092C108.956 111.423 97.6248 119.659 84.5625 123.121C84.615 119.764 84.7199 114.518 84.8773 109.062C85.0346 102.138 85.192 94.8984 85.2445 90.7542L116.248 100.092Z" fill="#9A99FF"/>
<path id="Vector_6" fill-rule="evenodd" clip-rule="evenodd" d="M124.744 73.8099C124.797 72.8132 124.849 71.8165 124.849 70.8197C124.849 58.3345 120.548 46.2689 112.679 36.6165L94.2656 63.1607L124.744 73.8099Z" fill="#9A99FF"/>
</g>
<g id="Outer_Curve">
<path id="Vector_7" fill-rule="evenodd" clip-rule="evenodd" d="M137.759 -0.367188H4.51313H0.316406V3.82953V70.1377C0.316406 84.1967 3.72624 97.9935 10.2312 110.269C16.7361 122.492 26.1787 132.774 37.5623 140.013L65.9426 158.059C67.464 159.056 69.2476 159.58 71.0836 159.58C72.9197 159.58 74.7033 159.056 76.2246 158.059L104.605 140.013C115.989 132.774 125.431 122.492 131.936 110.269C138.441 98.0459 141.903 84.1967 141.903 70.1377V3.82953V-0.367188H137.759ZM133.877 69.823C133.877 82.5181 130.782 95.0033 124.907 106.02C119.031 117.036 110.638 126.216 100.461 132.669L72.0803 150.715C71.8705 150.872 71.6607 150.925 71.3984 150.925C71.1361 150.925 70.9787 150.872 70.7164 150.715L42.3361 132.669C32.2115 126.216 23.7656 117.036 17.9426 106.02C12.0672 95.0033 8.97214 82.5181 8.97214 69.823V7.7115H133.825V69.823H133.877Z" fill="#9A99FF"/>
</g>
</g>
<defs>
<clipPath id="clip0_2512_3117">
<rect width="141.639" height="160" fill="white"/>
</clipPath>
</defs>
</svg>
